<mxfile host="Electron" modified="2024-06-08T22:38:51.855Z" agent="Mozilla/5.0 (Windows NT 10.0; Win64; x64) AppleWebKit/537.36 (KHTML, like Gecko) draw.io/24.4.8 Chrome/124.0.6367.207 Electron/30.0.6 Safari/537.36" etag="VOBe0aesAC0FX1w25LGh" version="24.4.8" type="device">
  <diagram name="Página-1" id="AKoou6CRLwUJHbGNkbX9">
    <mxGraphModel dx="1420" dy="830" grid="1" gridSize="10" guides="1" tooltips="1" connect="1" arrows="1" fold="1" page="1" pageScale="1" pageWidth="827" pageHeight="1169" background="#CCE5FF" math="0" shadow="0">
      <root>
        <mxCell id="0" />
        <mxCell id="1" parent="0" />
        <mxCell id="Jc-Pg5-LPqiU9QXtN4wY-1" value="2 Leer 10 números y guardarlos en un vector. Calcular el promedio y luego&#xa;mostrar por pantalla los valores que son mayores al promedio." style="text;whiteSpace=wrap;html=1;fontFamily=Comic Sans MS;fontStyle=1;fontSize=16;fontColor=#000000;" parent="1" vertex="1">
          <mxGeometry x="110" y="20" width="600" height="60" as="geometry" />
        </mxCell>
        <mxCell id="Jc-Pg5-LPqiU9QXtN4wY-86" value="" style="group;aspect=fixed;" parent="1" vertex="1" connectable="0">
          <mxGeometry x="99.36" y="110" width="439.28" height="1360" as="geometry" />
        </mxCell>
        <mxCell id="Jc-Pg5-LPqiU9QXtN4wY-6" value="" style="group;aspect=fixed;" parent="Jc-Pg5-LPqiU9QXtN4wY-86" vertex="1" connectable="0">
          <mxGeometry x="230.64" width="50" height="60" as="geometry" />
        </mxCell>
        <mxCell id="Jc-Pg5-LPqiU9QXtN4wY-2" value="" style="strokeWidth=2;html=1;shape=mxgraph.flowchart.start_2;whiteSpace=wrap;rounded=0;labelBackgroundColor=none;strokeColor=#000000;align=center;verticalAlign=middle;fontFamily=Helvetica;fontSize=12;fontColor=default;fillColor=#d5e8d4;aspect=fixed;" parent="Jc-Pg5-LPqiU9QXtN4wY-6" vertex="1">
          <mxGeometry width="50" height="60" as="geometry" />
        </mxCell>
        <mxCell id="Jc-Pg5-LPqiU9QXtN4wY-4" value="&lt;font color=&quot;#000000&quot; size=&quot;1&quot; face=&quot;Comic Sans MS&quot;&gt;&lt;b style=&quot;font-size: 19px;&quot;&gt;I&lt;/b&gt;&lt;/font&gt;" style="text;strokeColor=none;align=center;fillColor=none;html=1;verticalAlign=middle;whiteSpace=wrap;rounded=0;fontFamily=Architects Daughter;fontSource=https%3A%2F%2Ffonts.googleapis.com%2Fcss%3Ffamily%3DArchitects%2BDaughter;aspect=fixed;" parent="Jc-Pg5-LPqiU9QXtN4wY-6" vertex="1">
          <mxGeometry x="5" y="16" width="40" height="30" as="geometry" />
        </mxCell>
        <mxCell id="Jc-Pg5-LPqiU9QXtN4wY-7" value="" style="group;aspect=fixed;" parent="Jc-Pg5-LPqiU9QXtN4wY-86" vertex="1" connectable="0">
          <mxGeometry x="230.64" y="1300" width="50" height="60" as="geometry" />
        </mxCell>
        <mxCell id="Jc-Pg5-LPqiU9QXtN4wY-3" value="" style="strokeWidth=2;html=1;shape=mxgraph.flowchart.start_2;whiteSpace=wrap;rounded=0;labelBackgroundColor=none;strokeColor=#000000;align=center;verticalAlign=middle;fontFamily=Helvetica;fontSize=12;fontColor=default;fillColor=#d5e8d4;" parent="Jc-Pg5-LPqiU9QXtN4wY-7" vertex="1">
          <mxGeometry width="50" height="60" as="geometry" />
        </mxCell>
        <mxCell id="Jc-Pg5-LPqiU9QXtN4wY-5" value="&lt;font color=&quot;#000000&quot; size=&quot;1&quot; face=&quot;Comic Sans MS&quot;&gt;&lt;b style=&quot;font-size: 19px;&quot;&gt;F&lt;/b&gt;&lt;/font&gt;" style="text;strokeColor=none;align=center;fillColor=none;html=1;verticalAlign=middle;whiteSpace=wrap;rounded=0;fontFamily=Architects Daughter;fontSource=https://fonts.googleapis.com/css?family=Architects+Daughter;" parent="Jc-Pg5-LPqiU9QXtN4wY-7" vertex="1">
          <mxGeometry x="5" y="17" width="40" height="30" as="geometry" />
        </mxCell>
        <mxCell id="Jc-Pg5-LPqiU9QXtN4wY-10" value="" style="group;aspect=fixed;" parent="Jc-Pg5-LPqiU9QXtN4wY-86" vertex="1" connectable="0">
          <mxGeometry x="165.64" y="90" width="180" height="40" as="geometry" />
        </mxCell>
        <mxCell id="Jc-Pg5-LPqiU9QXtN4wY-8" value="" style="rounded=0;whiteSpace=wrap;html=1;labelBackgroundColor=none;strokeColor=#0f100e;strokeWidth=2;align=center;verticalAlign=middle;fontFamily=Helvetica;fontSize=12;fontColor=default;fillColor=#d5e8d4;" parent="Jc-Pg5-LPqiU9QXtN4wY-10" vertex="1">
          <mxGeometry x="9" width="160" height="40" as="geometry" />
        </mxCell>
        <mxCell id="Jc-Pg5-LPqiU9QXtN4wY-9" value="&lt;font size=&quot;1&quot; face=&quot;Comic Sans MS&quot; color=&quot;#000000&quot;&gt;&lt;b style=&quot;font-size: 16px;&quot;&gt;int vector[10]&lt;/b&gt;&lt;/font&gt;" style="text;strokeColor=none;align=center;fillColor=none;html=1;verticalAlign=middle;whiteSpace=wrap;rounded=0;fontFamily=Architects Daughter;fontSource=https%3A%2F%2Ffonts.googleapis.com%2Fcss%3Ffamily%3DArchitects%2BDaughter;" parent="Jc-Pg5-LPqiU9QXtN4wY-10" vertex="1">
          <mxGeometry y="6" width="180" height="30" as="geometry" />
        </mxCell>
        <mxCell id="Jc-Pg5-LPqiU9QXtN4wY-13" value="" style="group;aspect=fixed;" parent="Jc-Pg5-LPqiU9QXtN4wY-86" vertex="1" connectable="0">
          <mxGeometry x="135.64" y="160" width="240" height="55" as="geometry" />
        </mxCell>
        <mxCell id="Jc-Pg5-LPqiU9QXtN4wY-14" value="" style="rounded=0;whiteSpace=wrap;html=1;labelBackgroundColor=none;strokeColor=#0f100e;strokeWidth=2;align=center;verticalAlign=middle;fontFamily=Helvetica;fontSize=12;fontColor=default;fillColor=#d5e8d4;aspect=fixed;" parent="Jc-Pg5-LPqiU9QXtN4wY-13" vertex="1">
          <mxGeometry x="12" width="213.33333333333331" height="50" as="geometry" />
        </mxCell>
        <mxCell id="Jc-Pg5-LPqiU9QXtN4wY-15" value="&lt;font size=&quot;1&quot; face=&quot;Comic Sans MS&quot; color=&quot;#000000&quot;&gt;&lt;b style=&quot;font-size: 16px;&quot;&gt;int num, x = 0, acu = 0&lt;/b&gt;&lt;/font&gt;&lt;div&gt;&lt;font size=&quot;1&quot; face=&quot;Comic Sans MS&quot; color=&quot;#000000&quot;&gt;&lt;b style=&quot;font-size: 16px;&quot;&gt;float promedio&lt;/b&gt;&lt;/font&gt;&lt;/div&gt;" style="text;strokeColor=none;align=center;fillColor=none;html=1;verticalAlign=middle;whiteSpace=wrap;rounded=0;fontFamily=Architects Daughter;fontSource=https://fonts.googleapis.com/css?family=Architects+Daughter;aspect=fixed;" parent="Jc-Pg5-LPqiU9QXtN4wY-13" vertex="1">
          <mxGeometry x="15.329999999999984" y="-5" width="210" height="60" as="geometry" />
        </mxCell>
        <mxCell id="Jc-Pg5-LPqiU9QXtN4wY-29" value="" style="group;aspect=fixed;" parent="Jc-Pg5-LPqiU9QXtN4wY-86" vertex="1" connectable="0">
          <mxGeometry x="58.64" y="242" width="322" height="250" as="geometry" />
        </mxCell>
        <mxCell id="Jc-Pg5-LPqiU9QXtN4wY-18" value="" style="whiteSpace=wrap;html=1;aspect=fixed;rounded=0;labelBackgroundColor=none;strokeColor=#000000;strokeWidth=2;align=center;verticalAlign=middle;fontFamily=Helvetica;fontSize=12;fontColor=default;fillColor=#d5e8d4;" parent="Jc-Pg5-LPqiU9QXtN4wY-29" vertex="1">
          <mxGeometry x="72" width="250" height="250" as="geometry" />
        </mxCell>
        <mxCell id="Jc-Pg5-LPqiU9QXtN4wY-28" value="" style="group;aspect=fixed;" parent="Jc-Pg5-LPqiU9QXtN4wY-29" vertex="1" connectable="0">
          <mxGeometry y="22" width="149" height="140" as="geometry" />
        </mxCell>
        <mxCell id="Jc-Pg5-LPqiU9QXtN4wY-20" value="" style="ellipse;whiteSpace=wrap;html=1;aspect=fixed;rounded=0;labelBackgroundColor=none;strokeColor=#0F140C;strokeWidth=3;align=center;verticalAlign=middle;fontFamily=Helvetica;fontSize=12;fontColor=default;fillColor=#d5e8d4;container=0;" parent="Jc-Pg5-LPqiU9QXtN4wY-28" vertex="1">
          <mxGeometry x="5" width="140" height="140" as="geometry" />
        </mxCell>
        <mxCell id="Jc-Pg5-LPqiU9QXtN4wY-21" value="" style="endArrow=none;html=1;rounded=0;strokeColor=#0F140C;fontFamily=Helvetica;fontSize=12;fontColor=default;fillColor=#B2C9AB;strokeWidth=2;" parent="Jc-Pg5-LPqiU9QXtN4wY-28" edge="1">
          <mxGeometry width="50" height="50" relative="1" as="geometry">
            <mxPoint x="139.4" y="39.19999999999999" as="sourcePoint" />
            <mxPoint x="10.600000000000001" y="39.19999999999999" as="targetPoint" />
          </mxGeometry>
        </mxCell>
        <mxCell id="Jc-Pg5-LPqiU9QXtN4wY-22" value="" style="endArrow=none;html=1;rounded=0;strokeColor=#0F140C;fontFamily=Helvetica;fontSize=12;fontColor=default;fillColor=#B2C9AB;exitX=0.264;exitY=0.952;exitDx=0;exitDy=0;exitPerimeter=0;strokeWidth=2;" parent="Jc-Pg5-LPqiU9QXtN4wY-28" source="Jc-Pg5-LPqiU9QXtN4wY-20" edge="1">
          <mxGeometry width="50" height="50" relative="1" as="geometry">
            <mxPoint x="38.6" y="84" as="sourcePoint" />
            <mxPoint x="44.2" y="39.19999999999999" as="targetPoint" />
          </mxGeometry>
        </mxCell>
        <mxCell id="Jc-Pg5-LPqiU9QXtN4wY-23" value="" style="endArrow=none;html=1;rounded=0;strokeColor=#0F140C;fontFamily=Helvetica;fontSize=12;fontColor=default;fillColor=#B2C9AB;exitX=0.728;exitY=0.948;exitDx=0;exitDy=0;exitPerimeter=0;strokeWidth=2;" parent="Jc-Pg5-LPqiU9QXtN4wY-28" source="Jc-Pg5-LPqiU9QXtN4wY-20" edge="1">
          <mxGeometry width="50" height="50" relative="1" as="geometry">
            <mxPoint x="89.00000000000001" y="95.20000000000005" as="sourcePoint" />
            <mxPoint x="106.92000000000002" y="39.19999999999999" as="targetPoint" />
          </mxGeometry>
        </mxCell>
        <mxCell id="Jc-Pg5-LPqiU9QXtN4wY-27" value="&lt;font face=&quot;Comic Sans MS&quot; color=&quot;#000000&quot;&gt;&lt;span style=&quot;font-size: 13px;&quot;&gt;&lt;b&gt;x&lt;/b&gt;&lt;/span&gt;&lt;/font&gt;" style="text;strokeColor=none;align=center;fillColor=none;html=1;verticalAlign=middle;whiteSpace=wrap;rounded=0;fontFamily=Architects Daughter;fontSource=https://fonts.googleapis.com/css?family=Architects+Daughter;container=0;" parent="Jc-Pg5-LPqiU9QXtN4wY-28" vertex="1">
          <mxGeometry x="48" y="10" width="50" height="30" as="geometry" />
        </mxCell>
        <mxCell id="Jc-Pg5-LPqiU9QXtN4wY-24" value="&lt;font color=&quot;#000000&quot; size=&quot;1&quot; face=&quot;Comic Sans MS&quot;&gt;&lt;b style=&quot;font-size: 13px;&quot;&gt;x++&lt;/b&gt;&lt;/font&gt;" style="text;strokeColor=none;align=center;fillColor=none;html=1;verticalAlign=middle;whiteSpace=wrap;rounded=0;fontFamily=Architects Daughter;fontSource=https%3A%2F%2Ffonts.googleapis.com%2Fcss%3Ffamily%3DArchitects%2BDaughter;container=0;" parent="Jc-Pg5-LPqiU9QXtN4wY-28" vertex="1">
          <mxGeometry x="99" y="63" width="50" height="30" as="geometry" />
        </mxCell>
        <mxCell id="Jc-Pg5-LPqiU9QXtN4wY-26" value="&lt;font color=&quot;#000000&quot; size=&quot;1&quot; face=&quot;Comic Sans MS&quot;&gt;&lt;b style=&quot;font-size: 13px;&quot;&gt;x &amp;lt; 10&lt;/b&gt;&lt;/font&gt;" style="text;strokeColor=none;align=center;fillColor=none;html=1;verticalAlign=middle;whiteSpace=wrap;rounded=0;fontFamily=Architects Daughter;fontSource=https://fonts.googleapis.com/css?family=Architects+Daughter;container=0;" parent="Jc-Pg5-LPqiU9QXtN4wY-28" vertex="1">
          <mxGeometry x="44" y="63" width="60" height="30" as="geometry" />
        </mxCell>
        <mxCell id="Jc-Pg5-LPqiU9QXtN4wY-25" value="&lt;font color=&quot;#000000&quot; size=&quot;1&quot; face=&quot;Comic Sans MS&quot;&gt;&lt;b style=&quot;font-size: 13px;&quot;&gt;x = 0&lt;/b&gt;&lt;/font&gt;" style="text;strokeColor=none;align=center;fillColor=none;html=1;verticalAlign=middle;whiteSpace=wrap;rounded=0;fontFamily=Architects Daughter;fontSource=https://fonts.googleapis.com/css?family=Architects+Daughter;container=0;" parent="Jc-Pg5-LPqiU9QXtN4wY-28" vertex="1">
          <mxGeometry y="63" width="50" height="30" as="geometry" />
        </mxCell>
        <mxCell id="Jc-Pg5-LPqiU9QXtN4wY-46" value="" style="group;aspect=fixed;" parent="Jc-Pg5-LPqiU9QXtN4wY-29" vertex="1" connectable="0">
          <mxGeometry x="167" y="67" width="120" height="40" as="geometry" />
        </mxCell>
        <mxCell id="Jc-Pg5-LPqiU9QXtN4wY-44" value="" style="shape=trapezoid;perimeter=trapezoidPerimeter;whiteSpace=wrap;html=1;fixedSize=1;rounded=0;labelBackgroundColor=none;strokeColor=#121211;strokeWidth=2;align=center;verticalAlign=middle;fontFamily=Helvetica;fontSize=12;fontColor=default;fillColor=#d5e8d4;direction=west;container=0;" parent="Jc-Pg5-LPqiU9QXtN4wY-46" vertex="1">
          <mxGeometry width="120" height="40" as="geometry">
            <mxRectangle x="-1020" y="-650" width="50" height="40" as="alternateBounds" />
          </mxGeometry>
        </mxCell>
        <mxCell id="Jc-Pg5-LPqiU9QXtN4wY-45" value="&lt;font size=&quot;1&quot; face=&quot;Comic Sans MS&quot; color=&quot;#000000&quot;&gt;&lt;b style=&quot;font-size: 16px;&quot;&gt;num&lt;/b&gt;&lt;/font&gt;" style="text;strokeColor=none;align=center;fillColor=none;html=1;verticalAlign=middle;whiteSpace=wrap;rounded=0;fontFamily=Architects Daughter;fontSource=https://fonts.googleapis.com/css?family=Architects+Daughter;container=0;" parent="Jc-Pg5-LPqiU9QXtN4wY-46" vertex="1">
          <mxGeometry x="20" y="5" width="80" height="30" as="geometry" />
        </mxCell>
        <mxCell id="Jc-Pg5-LPqiU9QXtN4wY-41" value="" style="group;aspect=fixed;" parent="Jc-Pg5-LPqiU9QXtN4wY-29" vertex="1" connectable="0">
          <mxGeometry x="137" y="138" width="180" height="40" as="geometry" />
        </mxCell>
        <mxCell id="Jc-Pg5-LPqiU9QXtN4wY-42" value="" style="rounded=0;whiteSpace=wrap;html=1;labelBackgroundColor=none;strokeColor=#0f100e;strokeWidth=2;align=center;verticalAlign=middle;fontFamily=Helvetica;fontSize=12;fontColor=default;fillColor=#d5e8d4;" parent="Jc-Pg5-LPqiU9QXtN4wY-41" vertex="1">
          <mxGeometry x="9" width="160" height="40" as="geometry" />
        </mxCell>
        <mxCell id="Jc-Pg5-LPqiU9QXtN4wY-43" value="&lt;font size=&quot;1&quot; face=&quot;Comic Sans MS&quot; color=&quot;#000000&quot;&gt;&lt;b style=&quot;font-size: 16px;&quot;&gt;vector[10] = num&lt;/b&gt;&lt;/font&gt;" style="text;strokeColor=none;align=center;fillColor=none;html=1;verticalAlign=middle;whiteSpace=wrap;rounded=0;fontFamily=Architects Daughter;fontSource=https://fonts.googleapis.com/css?family=Architects+Daughter;" parent="Jc-Pg5-LPqiU9QXtN4wY-41" vertex="1">
          <mxGeometry y="6" width="180" height="30" as="geometry" />
        </mxCell>
        <mxCell id="-eR_TBp9mmPMfd-xaKWY-1" value="" style="line;strokeWidth=2;direction=south;html=1;hachureGap=4;fontFamily=Architects Daughter;fontSource=https://fonts.googleapis.com/css?family=Architects+Daughter;strokeColor=#000000;" vertex="1" parent="Jc-Pg5-LPqiU9QXtN4wY-29">
          <mxGeometry x="219" y="107" width="10" height="33" as="geometry" />
        </mxCell>
        <mxCell id="Jc-Pg5-LPqiU9QXtN4wY-30" value="" style="group;aspect=fixed;" parent="Jc-Pg5-LPqiU9QXtN4wY-86" vertex="1" connectable="0">
          <mxGeometry x="60.64" y="540" width="322" height="250" as="geometry" />
        </mxCell>
        <mxCell id="Jc-Pg5-LPqiU9QXtN4wY-31" value="" style="whiteSpace=wrap;html=1;aspect=fixed;rounded=0;labelBackgroundColor=none;strokeColor=#000000;strokeWidth=2;align=center;verticalAlign=middle;fontFamily=Helvetica;fontSize=12;fontColor=default;fillColor=#d5e8d4;" parent="Jc-Pg5-LPqiU9QXtN4wY-30" vertex="1">
          <mxGeometry x="72" width="250" height="250" as="geometry" />
        </mxCell>
        <mxCell id="Jc-Pg5-LPqiU9QXtN4wY-32" value="" style="group;aspect=fixed;" parent="Jc-Pg5-LPqiU9QXtN4wY-30" vertex="1" connectable="0">
          <mxGeometry y="22" width="149" height="140" as="geometry" />
        </mxCell>
        <mxCell id="Jc-Pg5-LPqiU9QXtN4wY-33" value="" style="ellipse;whiteSpace=wrap;html=1;aspect=fixed;rounded=0;labelBackgroundColor=none;strokeColor=#0F140C;strokeWidth=3;align=center;verticalAlign=middle;fontFamily=Helvetica;fontSize=12;fontColor=default;fillColor=#d5e8d4;container=0;" parent="Jc-Pg5-LPqiU9QXtN4wY-32" vertex="1">
          <mxGeometry x="5" width="140" height="140" as="geometry" />
        </mxCell>
        <mxCell id="Jc-Pg5-LPqiU9QXtN4wY-34" value="" style="endArrow=none;html=1;rounded=0;strokeColor=#0F140C;fontFamily=Helvetica;fontSize=12;fontColor=default;fillColor=#B2C9AB;strokeWidth=2;" parent="Jc-Pg5-LPqiU9QXtN4wY-32" edge="1">
          <mxGeometry width="50" height="50" relative="1" as="geometry">
            <mxPoint x="139.4" y="39.19999999999999" as="sourcePoint" />
            <mxPoint x="10.600000000000001" y="39.19999999999999" as="targetPoint" />
          </mxGeometry>
        </mxCell>
        <mxCell id="Jc-Pg5-LPqiU9QXtN4wY-35" value="" style="endArrow=none;html=1;rounded=0;strokeColor=#0F140C;fontFamily=Helvetica;fontSize=12;fontColor=default;fillColor=#B2C9AB;exitX=0.264;exitY=0.952;exitDx=0;exitDy=0;exitPerimeter=0;strokeWidth=2;" parent="Jc-Pg5-LPqiU9QXtN4wY-32" source="Jc-Pg5-LPqiU9QXtN4wY-33" edge="1">
          <mxGeometry width="50" height="50" relative="1" as="geometry">
            <mxPoint x="38.6" y="84" as="sourcePoint" />
            <mxPoint x="44.2" y="39.19999999999999" as="targetPoint" />
          </mxGeometry>
        </mxCell>
        <mxCell id="Jc-Pg5-LPqiU9QXtN4wY-36" value="" style="endArrow=none;html=1;rounded=0;strokeColor=#0F140C;fontFamily=Helvetica;fontSize=12;fontColor=default;fillColor=#B2C9AB;exitX=0.728;exitY=0.948;exitDx=0;exitDy=0;exitPerimeter=0;strokeWidth=2;" parent="Jc-Pg5-LPqiU9QXtN4wY-32" source="Jc-Pg5-LPqiU9QXtN4wY-33" edge="1">
          <mxGeometry width="50" height="50" relative="1" as="geometry">
            <mxPoint x="89.00000000000001" y="95.20000000000005" as="sourcePoint" />
            <mxPoint x="106.92000000000002" y="39.19999999999999" as="targetPoint" />
          </mxGeometry>
        </mxCell>
        <mxCell id="Jc-Pg5-LPqiU9QXtN4wY-37" value="&lt;font face=&quot;Comic Sans MS&quot; color=&quot;#000000&quot;&gt;&lt;span style=&quot;font-size: 13px;&quot;&gt;&lt;b&gt;x&lt;/b&gt;&lt;/span&gt;&lt;/font&gt;" style="text;strokeColor=none;align=center;fillColor=none;html=1;verticalAlign=middle;whiteSpace=wrap;rounded=0;fontFamily=Architects Daughter;fontSource=https://fonts.googleapis.com/css?family=Architects+Daughter;container=0;" parent="Jc-Pg5-LPqiU9QXtN4wY-32" vertex="1">
          <mxGeometry x="48" y="10" width="50" height="30" as="geometry" />
        </mxCell>
        <mxCell id="Jc-Pg5-LPqiU9QXtN4wY-38" value="&lt;font color=&quot;#000000&quot; size=&quot;1&quot; face=&quot;Comic Sans MS&quot;&gt;&lt;b style=&quot;font-size: 13px;&quot;&gt;x++&lt;/b&gt;&lt;/font&gt;" style="text;strokeColor=none;align=center;fillColor=none;html=1;verticalAlign=middle;whiteSpace=wrap;rounded=0;fontFamily=Architects Daughter;fontSource=https://fonts.googleapis.com/css?family=Architects+Daughter;container=0;" parent="Jc-Pg5-LPqiU9QXtN4wY-32" vertex="1">
          <mxGeometry x="99" y="63" width="50" height="30" as="geometry" />
        </mxCell>
        <mxCell id="Jc-Pg5-LPqiU9QXtN4wY-39" value="&lt;font color=&quot;#000000&quot; size=&quot;1&quot; face=&quot;Comic Sans MS&quot;&gt;&lt;b style=&quot;font-size: 13px;&quot;&gt;x &amp;lt; 10&lt;/b&gt;&lt;/font&gt;" style="text;strokeColor=none;align=center;fillColor=none;html=1;verticalAlign=middle;whiteSpace=wrap;rounded=0;fontFamily=Architects Daughter;fontSource=https://fonts.googleapis.com/css?family=Architects+Daughter;container=0;" parent="Jc-Pg5-LPqiU9QXtN4wY-32" vertex="1">
          <mxGeometry x="44" y="63" width="60" height="30" as="geometry" />
        </mxCell>
        <mxCell id="Jc-Pg5-LPqiU9QXtN4wY-40" value="&lt;font color=&quot;#000000&quot; size=&quot;1&quot; face=&quot;Comic Sans MS&quot;&gt;&lt;b style=&quot;font-size: 13px;&quot;&gt;x = 0&lt;/b&gt;&lt;/font&gt;" style="text;strokeColor=none;align=center;fillColor=none;html=1;verticalAlign=middle;whiteSpace=wrap;rounded=0;fontFamily=Architects Daughter;fontSource=https://fonts.googleapis.com/css?family=Architects+Daughter;container=0;" parent="Jc-Pg5-LPqiU9QXtN4wY-32" vertex="1">
          <mxGeometry y="63" width="50" height="30" as="geometry" />
        </mxCell>
        <mxCell id="Jc-Pg5-LPqiU9QXtN4wY-58" value="" style="group;aspect=fixed;" parent="Jc-Pg5-LPqiU9QXtN4wY-30" vertex="1" connectable="0">
          <mxGeometry x="142" y="110" width="180" height="40" as="geometry" />
        </mxCell>
        <mxCell id="Jc-Pg5-LPqiU9QXtN4wY-59" value="" style="rounded=0;whiteSpace=wrap;html=1;labelBackgroundColor=none;strokeColor=#0f100e;strokeWidth=2;align=center;verticalAlign=middle;fontFamily=Helvetica;fontSize=12;fontColor=default;fillColor=#d5e8d4;" parent="Jc-Pg5-LPqiU9QXtN4wY-58" vertex="1">
          <mxGeometry x="9" width="160" height="40" as="geometry" />
        </mxCell>
        <mxCell id="Jc-Pg5-LPqiU9QXtN4wY-60" value="&lt;font size=&quot;1&quot; face=&quot;Comic Sans MS&quot; color=&quot;#000000&quot;&gt;&lt;b style=&quot;font-size: 16px;&quot;&gt;acu += vector[x]&lt;/b&gt;&lt;/font&gt;" style="text;strokeColor=none;align=center;fillColor=none;html=1;verticalAlign=middle;whiteSpace=wrap;rounded=0;fontFamily=Architects Daughter;fontSource=https://fonts.googleapis.com/css?family=Architects+Daughter;" parent="Jc-Pg5-LPqiU9QXtN4wY-58" vertex="1">
          <mxGeometry y="6" width="180" height="30" as="geometry" />
        </mxCell>
        <mxCell id="Jc-Pg5-LPqiU9QXtN4wY-47" value="" style="group;aspect=fixed;" parent="Jc-Pg5-LPqiU9QXtN4wY-86" vertex="1" connectable="0">
          <mxGeometry y="920" width="439.28" height="350" as="geometry" />
        </mxCell>
        <mxCell id="Jc-Pg5-LPqiU9QXtN4wY-48" value="" style="whiteSpace=wrap;html=1;aspect=fixed;rounded=0;labelBackgroundColor=none;strokeColor=#000000;strokeWidth=2;align=center;verticalAlign=middle;fontFamily=Helvetica;fontSize=12;fontColor=default;fillColor=#d5e8d4;" parent="Jc-Pg5-LPqiU9QXtN4wY-47" vertex="1">
          <mxGeometry x="80" width="350" height="350" as="geometry" />
        </mxCell>
        <mxCell id="Jc-Pg5-LPqiU9QXtN4wY-49" value="" style="group;aspect=fixed;" parent="Jc-Pg5-LPqiU9QXtN4wY-47" vertex="1" connectable="0">
          <mxGeometry x="-9.36" y="27.28" width="184.76" height="173.6" as="geometry" />
        </mxCell>
        <mxCell id="Jc-Pg5-LPqiU9QXtN4wY-50" value="" style="ellipse;whiteSpace=wrap;html=1;aspect=fixed;rounded=0;labelBackgroundColor=none;strokeColor=#0F140C;strokeWidth=3;align=center;verticalAlign=middle;fontFamily=Helvetica;fontSize=12;fontColor=default;fillColor=#d5e8d4;container=0;" parent="Jc-Pg5-LPqiU9QXtN4wY-49" vertex="1">
          <mxGeometry x="6.2" width="173.6" height="173.6" as="geometry" />
        </mxCell>
        <mxCell id="Jc-Pg5-LPqiU9QXtN4wY-51" value="" style="endArrow=none;html=1;rounded=0;strokeColor=#0F140C;fontFamily=Helvetica;fontSize=12;fontColor=default;fillColor=#B2C9AB;strokeWidth=2;" parent="Jc-Pg5-LPqiU9QXtN4wY-49" edge="1">
          <mxGeometry width="50" height="50" relative="1" as="geometry">
            <mxPoint x="172.856" y="48.60799999999998" as="sourcePoint" />
            <mxPoint x="13.144000000000002" y="48.60799999999998" as="targetPoint" />
          </mxGeometry>
        </mxCell>
        <mxCell id="Jc-Pg5-LPqiU9QXtN4wY-52" value="" style="endArrow=none;html=1;rounded=0;strokeColor=#0F140C;fontFamily=Helvetica;fontSize=12;fontColor=default;fillColor=#B2C9AB;exitX=0.264;exitY=0.952;exitDx=0;exitDy=0;exitPerimeter=0;strokeWidth=2;" parent="Jc-Pg5-LPqiU9QXtN4wY-49" source="Jc-Pg5-LPqiU9QXtN4wY-50" edge="1">
          <mxGeometry width="50" height="50" relative="1" as="geometry">
            <mxPoint x="47.864000000000004" y="104.16" as="sourcePoint" />
            <mxPoint x="54.808" y="48.60799999999998" as="targetPoint" />
          </mxGeometry>
        </mxCell>
        <mxCell id="Jc-Pg5-LPqiU9QXtN4wY-53" value="" style="endArrow=none;html=1;rounded=0;strokeColor=#0F140C;fontFamily=Helvetica;fontSize=12;fontColor=default;fillColor=#B2C9AB;exitX=0.728;exitY=0.948;exitDx=0;exitDy=0;exitPerimeter=0;strokeWidth=2;" parent="Jc-Pg5-LPqiU9QXtN4wY-49" source="Jc-Pg5-LPqiU9QXtN4wY-50" edge="1">
          <mxGeometry width="50" height="50" relative="1" as="geometry">
            <mxPoint x="110.36000000000001" y="118.04800000000006" as="sourcePoint" />
            <mxPoint x="132.5808" y="48.60799999999998" as="targetPoint" />
          </mxGeometry>
        </mxCell>
        <mxCell id="Jc-Pg5-LPqiU9QXtN4wY-54" value="&lt;font face=&quot;Comic Sans MS&quot; color=&quot;#000000&quot;&gt;&lt;span style=&quot;font-size: 13px;&quot;&gt;&lt;b&gt;x&lt;/b&gt;&lt;/span&gt;&lt;/font&gt;" style="text;strokeColor=none;align=center;fillColor=none;html=1;verticalAlign=middle;whiteSpace=wrap;rounded=0;fontFamily=Architects Daughter;fontSource=https://fonts.googleapis.com/css?family=Architects+Daughter;container=0;" parent="Jc-Pg5-LPqiU9QXtN4wY-49" vertex="1">
          <mxGeometry x="59.519999999999996" y="12.4" width="62" height="37.2" as="geometry" />
        </mxCell>
        <mxCell id="Jc-Pg5-LPqiU9QXtN4wY-55" value="&lt;font color=&quot;#000000&quot; size=&quot;1&quot; face=&quot;Comic Sans MS&quot;&gt;&lt;b style=&quot;font-size: 13px;&quot;&gt;x++&lt;/b&gt;&lt;/font&gt;" style="text;strokeColor=none;align=center;fillColor=none;html=1;verticalAlign=middle;whiteSpace=wrap;rounded=0;fontFamily=Architects Daughter;fontSource=https://fonts.googleapis.com/css?family=Architects+Daughter;container=0;" parent="Jc-Pg5-LPqiU9QXtN4wY-49" vertex="1">
          <mxGeometry x="122.76" y="78.12" width="62" height="37.2" as="geometry" />
        </mxCell>
        <mxCell id="Jc-Pg5-LPqiU9QXtN4wY-56" value="&lt;font color=&quot;#000000&quot; size=&quot;1&quot; face=&quot;Comic Sans MS&quot;&gt;&lt;b style=&quot;font-size: 13px;&quot;&gt;x &amp;lt; 10&lt;/b&gt;&lt;/font&gt;" style="text;strokeColor=none;align=center;fillColor=none;html=1;verticalAlign=middle;whiteSpace=wrap;rounded=0;fontFamily=Architects Daughter;fontSource=https://fonts.googleapis.com/css?family=Architects+Daughter;container=0;" parent="Jc-Pg5-LPqiU9QXtN4wY-49" vertex="1">
          <mxGeometry x="54.56" y="78.12" width="74.4" height="37.2" as="geometry" />
        </mxCell>
        <mxCell id="Jc-Pg5-LPqiU9QXtN4wY-57" value="&lt;font color=&quot;#000000&quot; size=&quot;1&quot; face=&quot;Comic Sans MS&quot;&gt;&lt;b style=&quot;font-size: 13px;&quot;&gt;x = 0&lt;/b&gt;&lt;/font&gt;" style="text;strokeColor=none;align=center;fillColor=none;html=1;verticalAlign=middle;whiteSpace=wrap;rounded=0;fontFamily=Architects Daughter;fontSource=https://fonts.googleapis.com/css?family=Architects+Daughter;container=0;" parent="Jc-Pg5-LPqiU9QXtN4wY-49" vertex="1">
          <mxGeometry y="78.12" width="62" height="37.2" as="geometry" />
        </mxCell>
        <mxCell id="Jc-Pg5-LPqiU9QXtN4wY-67" value="" style="group;aspect=fixed;" parent="Jc-Pg5-LPqiU9QXtN4wY-47" vertex="1" connectable="0">
          <mxGeometry x="237.64" y="38" width="131" height="130" as="geometry" />
        </mxCell>
        <mxCell id="Jc-Pg5-LPqiU9QXtN4wY-65" value="" style="rhombus;whiteSpace=wrap;html=1;rounded=0;labelBackgroundColor=none;strokeColor=#0F140C;strokeWidth=2;align=center;verticalAlign=middle;fontFamily=Helvetica;fontSize=12;fontColor=default;fillColor=#d5e8d4;" parent="Jc-Pg5-LPqiU9QXtN4wY-67" vertex="1">
          <mxGeometry width="130" height="130" as="geometry" />
        </mxCell>
        <mxCell id="Jc-Pg5-LPqiU9QXtN4wY-66" value="&lt;font size=&quot;1&quot; face=&quot;Comic Sans MS&quot; color=&quot;#000000&quot;&gt;&lt;b style=&quot;font-size: 16px;&quot;&gt;vector[x]&lt;/b&gt;&lt;/font&gt;&lt;div&gt;&lt;font size=&quot;1&quot; face=&quot;Comic Sans MS&quot; color=&quot;#000000&quot;&gt;&lt;b style=&quot;font-size: 16px;&quot;&gt;&amp;lt;&lt;/b&gt;&lt;/font&gt;&lt;/div&gt;&lt;div&gt;&lt;font size=&quot;1&quot; face=&quot;Comic Sans MS&quot; color=&quot;#000000&quot;&gt;&lt;b style=&quot;font-size: 16px;&quot;&gt;promedio&lt;/b&gt;&lt;/font&gt;&lt;/div&gt;" style="text;strokeColor=none;align=center;fillColor=none;html=1;verticalAlign=middle;whiteSpace=wrap;rounded=0;fontFamily=Architects Daughter;fontSource=https://fonts.googleapis.com/css?family=Architects+Daughter;" parent="Jc-Pg5-LPqiU9QXtN4wY-67" vertex="1">
          <mxGeometry x="1" y="31" width="130" height="70" as="geometry" />
        </mxCell>
        <mxCell id="Jc-Pg5-LPqiU9QXtN4wY-70" value="" style="group;aspect=fixed;" parent="Jc-Pg5-LPqiU9QXtN4wY-47" vertex="1" connectable="0">
          <mxGeometry x="110.64" y="200.8800000000001" width="240" height="54" as="geometry" />
        </mxCell>
        <mxCell id="Jc-Pg5-LPqiU9QXtN4wY-68" value="" style="shape=trapezoid;perimeter=trapezoidPerimeter;whiteSpace=wrap;html=1;fixedSize=1;rounded=0;labelBackgroundColor=none;strokeColor=#0F140C;strokeWidth=2;align=center;verticalAlign=middle;fontFamily=Helvetica;fontSize=12;fontColor=default;fillColor=#d5e8d4;" parent="Jc-Pg5-LPqiU9QXtN4wY-70" vertex="1">
          <mxGeometry width="240" height="50" as="geometry" />
        </mxCell>
        <mxCell id="Jc-Pg5-LPqiU9QXtN4wY-69" value="&lt;b&gt;&lt;font color=&quot;#000000&quot; style=&quot;font-size: 14px;&quot; face=&quot;Comic Sans MS&quot;&gt;&quot;Valores mayor al promedio &quot;,&lt;/font&gt;&lt;/b&gt;&lt;div&gt;&lt;font face=&quot;Comic Sans MS&quot; color=&quot;#000000&quot;&gt;&lt;span style=&quot;font-size: 14px;&quot;&gt;&lt;b&gt;vector[x]&lt;/b&gt;&lt;/span&gt;&lt;/font&gt;&lt;/div&gt;" style="text;strokeColor=none;align=center;fillColor=none;html=1;verticalAlign=middle;whiteSpace=wrap;rounded=0;fontFamily=Architects Daughter;fontSource=https%3A%2F%2Ffonts.googleapis.com%2Fcss%3Ffamily%3DArchitects%2BDaughter;" parent="Jc-Pg5-LPqiU9QXtN4wY-70" vertex="1">
          <mxGeometry x="16" y="4" width="210" height="50" as="geometry" />
        </mxCell>
        <mxCell id="Jc-Pg5-LPqiU9QXtN4wY-83" value="" style="line;strokeWidth=2;html=1;perimeter=backbonePerimeter;points=[];outlineConnect=0;hachureGap=4;fontFamily=Architects Daughter;fontSource=https://fonts.googleapis.com/css?family=Architects+Daughter;strokeColor=#000000;" parent="Jc-Pg5-LPqiU9QXtN4wY-47" vertex="1">
          <mxGeometry x="210" y="98" width="27.64" height="10" as="geometry" />
        </mxCell>
        <mxCell id="Jc-Pg5-LPqiU9QXtN4wY-84" value="" style="line;strokeWidth=2;html=1;perimeter=backbonePerimeter;points=[];outlineConnect=0;hachureGap=4;fontFamily=Architects Daughter;fontSource=https://fonts.googleapis.com/css?family=Architects+Daughter;strokeColor=#000000;" parent="Jc-Pg5-LPqiU9QXtN4wY-47" vertex="1">
          <mxGeometry x="365.64" y="98" width="34.36" height="10" as="geometry" />
        </mxCell>
        <mxCell id="Jc-Pg5-LPqiU9QXtN4wY-80" value="" style="line;strokeWidth=2;direction=south;html=1;hachureGap=4;fontFamily=Architects Daughter;fontSource=https://fonts.googleapis.com/css?family=Architects+Daughter;strokeColor=#000000;" parent="Jc-Pg5-LPqiU9QXtN4wY-47" vertex="1">
          <mxGeometry x="207" y="103" width="10" height="97" as="geometry" />
        </mxCell>
        <mxCell id="Jc-Pg5-LPqiU9QXtN4wY-81" value="" style="line;strokeWidth=2;direction=south;html=1;hachureGap=4;fontFamily=Architects Daughter;fontSource=https://fonts.googleapis.com/css?family=Architects+Daughter;strokeColor=#000000;" parent="Jc-Pg5-LPqiU9QXtN4wY-47" vertex="1">
          <mxGeometry x="394" y="104" width="10" height="176" as="geometry" />
        </mxCell>
        <mxCell id="Jc-Pg5-LPqiU9QXtN4wY-79" value="" style="line;strokeWidth=2;direction=south;html=1;hachureGap=4;fontFamily=Architects Daughter;fontSource=https://fonts.googleapis.com/css?family=Architects+Daughter;strokeColor=#000000;" parent="Jc-Pg5-LPqiU9QXtN4wY-47" vertex="1">
          <mxGeometry x="210" y="250" width="10" height="30" as="geometry" />
        </mxCell>
        <mxCell id="Jc-Pg5-LPqiU9QXtN4wY-85" value="" style="line;strokeWidth=2;html=1;perimeter=backbonePerimeter;points=[];outlineConnect=0;hachureGap=4;fontFamily=Architects Daughter;fontSource=https://fonts.googleapis.com/css?family=Architects+Daughter;strokeColor=#000000;" parent="Jc-Pg5-LPqiU9QXtN4wY-47" vertex="1">
          <mxGeometry x="215" y="275" width="185" height="10" as="geometry" />
        </mxCell>
        <mxCell id="Jc-Pg5-LPqiU9QXtN4wY-64" value="" style="group;aspect=fixed;" parent="Jc-Pg5-LPqiU9QXtN4wY-86" vertex="1" connectable="0">
          <mxGeometry x="141.14" y="830" width="229" height="40" as="geometry" />
        </mxCell>
        <mxCell id="Jc-Pg5-LPqiU9QXtN4wY-62" value="" style="rounded=0;whiteSpace=wrap;html=1;labelBackgroundColor=none;strokeColor=#0f100e;strokeWidth=2;align=center;verticalAlign=middle;fontFamily=Helvetica;fontSize=12;fontColor=default;fillColor=#d5e8d4;container=0;" parent="Jc-Pg5-LPqiU9QXtN4wY-64" vertex="1">
          <mxGeometry width="229" height="40" as="geometry" />
        </mxCell>
        <mxCell id="Jc-Pg5-LPqiU9QXtN4wY-63" value="&lt;font size=&quot;1&quot; face=&quot;Comic Sans MS&quot; color=&quot;#000000&quot;&gt;&lt;b style=&quot;font-size: 16px;&quot;&gt;promedio = (float)acu / 10&lt;/b&gt;&lt;/font&gt;" style="text;strokeColor=none;align=center;fillColor=none;html=1;verticalAlign=middle;whiteSpace=wrap;rounded=0;fontFamily=Architects Daughter;fontSource=https://fonts.googleapis.com/css?family=Architects+Daughter;container=0;" parent="Jc-Pg5-LPqiU9QXtN4wY-64" vertex="1">
          <mxGeometry x="4.5" y="5" width="220" height="30" as="geometry" />
        </mxCell>
        <mxCell id="Jc-Pg5-LPqiU9QXtN4wY-71" value="" style="line;strokeWidth=2;direction=south;html=1;hachureGap=4;fontFamily=Architects Daughter;fontSource=https://fonts.googleapis.com/css?family=Architects+Daughter;strokeColor=#000000;" parent="Jc-Pg5-LPqiU9QXtN4wY-86" vertex="1">
          <mxGeometry x="250.64" y="60" width="10" height="30" as="geometry" />
        </mxCell>
        <mxCell id="Jc-Pg5-LPqiU9QXtN4wY-72" value="" style="line;strokeWidth=2;direction=south;html=1;hachureGap=4;fontFamily=Architects Daughter;fontSource=https://fonts.googleapis.com/css?family=Architects+Daughter;strokeColor=#000000;" parent="Jc-Pg5-LPqiU9QXtN4wY-86" vertex="1">
          <mxGeometry x="250.64" y="130" width="10" height="30" as="geometry" />
        </mxCell>
        <mxCell id="Jc-Pg5-LPqiU9QXtN4wY-73" value="" style="line;strokeWidth=2;direction=south;html=1;hachureGap=4;fontFamily=Architects Daughter;fontSource=https://fonts.googleapis.com/css?family=Architects+Daughter;strokeColor=#000000;" parent="Jc-Pg5-LPqiU9QXtN4wY-86" vertex="1">
          <mxGeometry x="250.64" y="492" width="10" height="50" as="geometry" />
        </mxCell>
        <mxCell id="Jc-Pg5-LPqiU9QXtN4wY-74" value="" style="line;strokeWidth=2;direction=south;html=1;hachureGap=4;fontFamily=Architects Daughter;fontSource=https://fonts.googleapis.com/css?family=Architects+Daughter;strokeColor=#000000;" parent="Jc-Pg5-LPqiU9QXtN4wY-86" vertex="1">
          <mxGeometry x="250.64" y="210" width="10" height="30" as="geometry" />
        </mxCell>
        <mxCell id="Jc-Pg5-LPqiU9QXtN4wY-75" value="" style="line;strokeWidth=2;direction=south;html=1;hachureGap=4;fontFamily=Architects Daughter;fontSource=https://fonts.googleapis.com/css?family=Architects+Daughter;strokeColor=#000000;" parent="Jc-Pg5-LPqiU9QXtN4wY-86" vertex="1">
          <mxGeometry x="250.64" y="790" width="10" height="40" as="geometry" />
        </mxCell>
        <mxCell id="Jc-Pg5-LPqiU9QXtN4wY-76" value="" style="line;strokeWidth=2;direction=south;html=1;hachureGap=4;fontFamily=Architects Daughter;fontSource=https://fonts.googleapis.com/css?family=Architects+Daughter;strokeColor=#000000;" parent="Jc-Pg5-LPqiU9QXtN4wY-86" vertex="1">
          <mxGeometry x="250.64" y="870" width="10" height="50" as="geometry" />
        </mxCell>
        <mxCell id="Jc-Pg5-LPqiU9QXtN4wY-77" value="" style="line;strokeWidth=2;direction=south;html=1;hachureGap=4;fontFamily=Architects Daughter;fontSource=https://fonts.googleapis.com/css?family=Architects+Daughter;strokeColor=#000000;" parent="Jc-Pg5-LPqiU9QXtN4wY-86" vertex="1">
          <mxGeometry x="250.64" y="1270" width="10" height="30" as="geometry" />
        </mxCell>
      </root>
    </mxGraphModel>
  </diagram>
</mxfile>
